<?xml version="1.0" standalone="no"?>
<!DOCTYPE svg PUBLIC "-//W3C//DTD SVG 20010904//EN"
 "http://www.w3.org/TR/2001/REC-SVG-20010904/DTD/svg10.dtd">
<svg version="1.0" xmlns="http://www.w3.org/2000/svg"
 width="653.000000pt" height="653.000000pt" viewBox="0 0 653.000000 653.000000"
 preserveAspectRatio="xMidYMid meet">
<metadata>
Created by potrace 1.11, written by Peter Selinger 2001-2013
</metadata>
<g transform="translate(0.000000,653.000000) scale(0.100000,-0.100000)"
fill="#000000" stroke="none">
<path d="M4599 6526 c-2 -2 -32 -7 -67 -10 -73 -8 -131 -18 -222 -41 -36 -9
-75 -18 -87 -21 -58 -12 -240 -82 -351 -135 -142 -67 -190 -95 -402 -235 -420
-276 -749 -424 -1185 -533 -66 -16 -132 -32 -146 -35 -51 -9 -225 -58 -304
-86 -312 -109 -606 -281 -870 -510 -85 -73 -293 -291 -350 -366 -33 -43 -62
-81 -66 -84 -11 -10 -96 -137 -141 -210 -205 -340 -324 -684 -383 -1110 -10
-75 -14 -510 -5 -590 5 -41 12 -100 15 -130 10 -96 65 -351 101 -475 82 -283
201 -543 346 -760 47 -71 95 -139 105 -150 10 -11 40 -47 67 -80 69 -85 236
-248 336 -328 234 -188 554 -365 850 -469 61 -21 236 -77 260 -83 8 -2 41 -10
73 -19 32 -8 75 -18 95 -21 21 -3 49 -8 62 -10 14 -3 41 -8 60 -11 19 -3 59
-9 89 -14 73 -13 504 -13 572 0 30 6 73 13 96 16 135 16 426 90 598 152 847
306 1445 923 1706 1761 49 155 99 369 113 476 26 212 110 522 205 759 78 193
213 441 331 606 190 266 310 523 377 808 25 106 27 138 29 327 2 116 -2 233
-7 260 -6 28 -13 61 -15 75 -30 148 -74 279 -140 415 -60 123 -58 121 -133
225 -220 305 -595 522 -1042 603 -46 9 -100 19 -119 22 -38 7 -444 17 -451 11z
m391 -290 c41 -4 102 -11 135 -17 33 -6 71 -13 85 -15 72 -13 253 -80 343
-128 278 -146 525 -441 622 -743 29 -90 31 -102 49 -218 15 -103 11 -280 -9
-385 -32 -165 -86 -323 -165 -485 -33 -66 -91 -165 -129 -220 -81 -115 -212
-320 -256 -397 -111 -200 -272 -613 -300 -770 -3 -15 -9 -38 -15 -52 -5 -15
-7 -26 -4 -26 3 0 2 -6 -3 -12 -4 -7 -8 -17 -9 -23 -1 -5 -7 -35 -13 -65 -21
-104 -27 -136 -37 -195 -5 -34 -51 -270 -58 -300 -15 -61 -61 -215 -76 -250
-4 -11 -20 -51 -35 -90 -40 -102 -139 -297 -198 -390 -166 -262 -412 -527
-637 -687 -84 -60 -111 -78 -165 -110 -97 -57 -205 -113 -285 -148 -70 -30
-256 -98 -290 -105 -8 -2 -51 -13 -95 -24 -44 -11 -96 -23 -115 -26 -19 -3
-57 -10 -85 -15 -46 -8 -90 -13 -230 -25 -114 -10 -397 -4 -520 10 -319 38
-581 113 -825 235 -54 27 -116 60 -139 74 -22 14 -43 26 -45 26 -5 0 -74 47
-146 98 -137 97 -349 299 -461 437 -178 221 -335 480 -419 691 -52 130 -116
379 -134 519 -2 17 -7 53 -11 80 -24 183 -29 270 -30 510 0 241 5 283 52 464
43 162 121 349 221 526 46 82 187 297 221 337 10 13 48 59 83 103 71 90 275
299 358 367 127 104 323 231 440 285 63 29 161 73 185 83 29 13 167 61 185 65
8 2 56 15 105 29 50 14 140 35 200 47 61 12 119 23 130 26 11 2 31 6 45 9 86
17 302 88 420 136 214 89 370 177 655 369 187 126 318 197 476 259 122 47 286
94 384 110 39 6 81 13 95 16 14 2 68 7 120 10 52 3 96 7 97 8 4 3 166 -2 233
-8z"/>
<path d="M2767 4454 c-1 -1 -38 -5 -82 -8 -527 -40 -1024 -391 -1267 -896 -23
-48 -48 -104 -53 -120 -1 -3 -15 -50 -32 -105 -18 -55 -34 -113 -37 -130 -4
-16 -9 -41 -11 -55 -20 -101 -26 -343 -12 -471 39 -360 194 -686 447 -940 82
-82 237 -209 256 -209 3 0 19 -9 35 -20 112 -80 409 -192 572 -215 23 -3 56
-9 72 -12 70 -12 353 -19 400 -10 11 3 42 8 68 11 27 4 59 10 70 12 12 3 35 7
50 10 106 20 322 109 444 185 251 156 474 405 601 671 23 48 42 90 42 92 0 3
5 17 11 33 6 15 11 30 11 33 0 3 4 12 8 20 12 23 57 198 65 253 3 27 9 59 11
70 9 41 11 292 3 367 -48 440 -258 809 -625 1100 -152 121 -463 261 -653 295
-14 2 -49 9 -76 14 -69 13 -310 32 -318 25z m328 -469 c257 -50 483 -214 575
-416 40 -89 16 -167 -60 -199 -65 -27 -102 -5 -228 138 -121 138 -285 220
-451 226 -71 3 -112 -7 -222 -54 -99 -43 -127 -51 -171 -51 -104 0 -164 106
-110 193 43 69 219 146 377 165 28 3 52 7 54 9 5 4 202 -4 236 -11z"/>
</g>
</svg>
